HIERARCHY
ROOT Hips
{
	OFFSET -0.001795 -0.223333 0.028219
	CHANNELS 6 Xposition Yposition Zposition Zrotation Yrotation Xrotation 
	JOINT LeftUpLeg
	{
		OFFSET 0.069520 -0.091406 -0.006815
		CHANNELS 3 Zrotation Yrotation Xrotation
		JOINT LeftLeg
		{
			OFFSET 0.034277 -0.375199 -0.004496
			CHANNELS 3 Zrotation Yrotation Xrotation
			JOINT LeftFoot
			{
				OFFSET -0.013596 -0.397961 -0.043693
				CHANNELS 3 Zrotation Yrotation Xrotation
				JOINT LeftToe
				{
					OFFSET 0.026358 -0.055791 0.119288
					CHANNELS 3 Zrotation Yrotation Xrotation
					End Site
					{
						OFFSET 0.000000 0.000000 0.000000
					}
				}
			}
		}
	}
	JOINT RightUpLeg
	{
		OFFSET -0.067670 -0.090522 -0.004320
		CHANNELS 3 Zrotation Yrotation Xrotation
		JOINT RightLeg
		{
			OFFSET -0.038290 -0.382569 -0.008850
			CHANNELS 3 Zrotation Yrotation Xrotation
			JOINT RightFoot
			{
				OFFSET 0.015774 -0.398415 -0.042312
				CHANNELS 3 Zrotation Yrotation Xrotation
				JOINT RightToe
				{
					OFFSET -0.025372 -0.048144 0.123348
					CHANNELS 3 Zrotation Yrotation Xrotation
					End Site
					{
						OFFSET 0.000000 0.000000 0.000000
					}
				}
			}
		}
	}
	JOINT Spine
	{
		OFFSET -0.002533 0.108963 -0.026696
		CHANNELS 3 Zrotation Yrotation Xrotation
		JOINT Spine1
		{
			OFFSET 0.005487 0.135180 0.001092
			CHANNELS 3 Zrotation Yrotation Xrotation
			JOINT Spine2
			{
				OFFSET 0.001457 0.052922 0.025425
				CHANNELS 3 Zrotation Yrotation Xrotation
				JOINT Neck
				{
					OFFSET -0.002778 0.213870 -0.042857
					CHANNELS 3 Zrotation Yrotation Xrotation
					JOINT Head
					{
						OFFSET 0.005152 0.064970 0.051349
						CHANNELS 3 Zrotation Yrotation Xrotation
						End Site
						{
							OFFSET 0.000000 0.000000 0.000000
						}
					}
				}
				JOINT LeftShoulder
				{
					OFFSET 0.078845 0.121749 -0.034090
					CHANNELS 3 Zrotation Yrotation Xrotation
					JOINT LeftArm
					{
						OFFSET 0.090977 0.030469 -0.008868
						CHANNELS 3 Zrotation Yrotation Xrotation
						JOINT LeftForeArm
						{
							OFFSET 0.259612 -0.012772 -0.027456
							CHANNELS 3 Zrotation Yrotation Xrotation
							JOINT LeftHand
							{
								OFFSET 0.249234 0.008986 -0.001171
								CHANNELS 3 Zrotation Yrotation Xrotation
								End Site
								{
									OFFSET 0.000000 0.000000 0.000000
								}
							}
						}
					}
				}
				JOINT RightShoulder
				{
					OFFSET -0.081759 0.118833 -0.038615
					CHANNELS 3 Zrotation Yrotation Xrotation
					JOINT RightArm
					{
						OFFSET -0.096012 0.032551 -0.009143
						CHANNELS 3 Zrotation Yrotation Xrotation
						JOINT RightForeArm
						{
							OFFSET -0.253742 -0.013329 -0.021401
							CHANNELS 3 Zrotation Yrotation Xrotation
							JOINT RightHand
							{
								OFFSET -0.255298 0.007772 -0.005559
								CHANNELS 3 Zrotation Yrotation Xrotation
								End Site
								{
									OFFSET 0.000000 0.000000 0.000000
								}
							}
						}
					}
				}
			}
		}
	}
}
MOTION
Frames: 14
Frame Time: 0.050000
0.000000 0.950534 0.000000 2.684649 16.566027 1.707725 5.455119 -0.545962 -6.444579 -3.540977 0.038182 9.072858 5.300355 13.643603 9.103346 0.000000 0.000000 0.000000 -6.109726 0.047925 -3.425817 2.580887 -0.384489 4.995156 -1.961414 -6.565921 12.218602 0.000000 0.000000 0.000000 9.634043 -1.944892 12.067718 -8.315927 2.747852 -24.377564 0.440267 3.011119 27.506541 12.917540 -4.310260 -24.921335 0.000000 0.000000 0.000000 -16.027266 -2.464411 -2.535811 -50.466742 -2.908830 -6.786265 -24.524532 -32.748419 7.682259 0.000000 0.000000 0.000000 19.003309 -8.239024 -2.578313 51.760445 11.803021 -2.962311 13.797884 34.383498 7.215049 0.000000 0.000000 0.000000 
0.004581 0.949385 -0.003186 3.000862 16.409762 2.124413 5.480516 -0.554174 -6.544802 -3.751439 0.075713 8.957484 4.013709 11.290781 8.017563 0.000000 0.000000 0.000000 -7.190979 0.013933 -4.128981 3.140881 -0.508865 6.115487 -1.562264 -5.575240 10.384732 0.000000 0.000000 0.000000 10.357430 -1.941149 11.339093 -8.506681 2.816250 -23.955770 0.602442 3.201381 27.636179 13.762349 -4.777835 -25.171119 0.000000 0.000000 0.000000 -13.743032 -0.888221 -2.775220 -52.471119 -3.203830 -7.235278 -25.918215 -33.381796 8.242461 0.000000 0.000000 0.000000 17.594261 -8.740865 -2.902897 51.322999 11.326935 -3.054257 16.551893 33.484617 7.860984 0.000000 0.000000 0.000000 
0.010975 0.949417 -0.007657 3.008320 15.639563 1.517678 5.705819 -0.510039 -5.956232 -3.711424 0.070667 9.385657 2.521979 8.572319 7.379793 0.000000 0.000000 0.000000 -7.245165 0.029545 -4.566963 2.472196 -0.369187 6.768717 -1.771909 -6.305868 12.021846 0.000000 0.000000 0.000000 10.802051 -2.102996 12.121963 -8.670181 2.799764 -24.638531 1.432995 3.686083 28.868516 14.147183 -5.226683 -24.737872 0.000000 0.000000 0.000000 -14.474975 -1.237088 -2.729867 -51.023306 -3.203676 -7.102875 -27.749296 -32.362187 8.543554 0.000000 0.000000 0.000000 17.223856 -9.405331 -3.230580 51.249478 11.283462 -3.276658 16.135949 34.479631 8.128506 0.000000 0.000000 0.000000 
0.019712 0.948978 -0.012852 3.388244 14.908821 1.348191 5.132777 -0.500358 -5.980120 -3.291233 0.014054 9.552901 1.155698 6.409943 7.786372 0.000000 0.000000 0.000000 -8.005815 -0.014423 -4.401926 2.244605 -0.312474 6.957987 -1.874559 -6.455874 10.827801 0.000000 0.000000 0.000000 11.460742 -2.280527 12.679419 -9.413420 2.946382 -24.627347 2.310889 3.865879 29.001674 14.894222 -5.362915 -26.271445 0.000000 0.000000 0.000000 -13.340087 0.333316 -3.156899 -51.670239 -3.359590 -7.245725 -29.935456 -32.873294 9.351636 0.000000 0.000000 0.000000 14.539774 -10.680250 -4.043586 51.770716 10.714898 -3.227634 19.189586 34.481542 9.227204 0.000000 0.000000 0.000000 
0.030646 0.948566 -0.018576 3.589299 13.057157 1.195936 4.478819 -0.478553 -5.862733 -2.573885 -0.073010 9.705943 -0.078192 4.307904 8.095584 0.000000 0.000000 0.000000 -8.822470 -0.006360 -5.469805 1.729937 -0.185502 8.479624 -1.138884 -5.109874 10.246297 0.000000 0.000000 0.000000 11.385788 -2.428805 13.882606 -8.308915 2.654499 -25.421774 2.169093 4.531048 29.492559 15.292167 -5.721229 -26.251117 0.000000 0.000000 0.000000 -12.927251 0.550752 -3.047260 -51.027565 -3.193295 -7.294519 -33.229078 -33.690637 10.680115 0.000000 0.000000 0.000000 14.686660 -11.365042 -4.472944 50.583466 10.303772 -3.556260 20.793834 36.641141 10.541352 0.000000 0.000000 0.000000 
0.043718 0.947653 -0.024215 3.415635 10.531922 1.370432 4.084456 -0.466955 -5.873985 -1.308387 -0.242048 9.639253 -1.843380 0.946968 7.997682 0.000000 0.000000 0.000000 -9.156775 0.064471 -6.770933 0.740990 0.072801 9.839796 -0.048009 -2.796557 8.680095 0.000000 0.000000 0.000000 11.622509 -2.423066 13.972269 -7.994711 2.580884 -25.264838 2.395130 4.999121 29.532448 15.490202 -5.912858 -26.577135 0.000000 0.000000 0.000000 -11.850663 1.194298 -2.905517 -51.105622 -3.303564 -7.331693 -34.648856 -34.514169 11.577942 0.000000 0.000000 0.000000 13.553348 -11.866524 -4.892019 50.782879 9.692195 -3.687434 22.392410 37.944563 11.504729 0.000000 0.000000 0.000000 
0.058759 0.946709 -0.029883 3.406275 7.364333 0.980110 3.015157 -0.399717 -4.934787 -0.158220 -0.348811 8.584837 -2.572621 -0.222208 8.832739 0.000000 0.000000 0.000000 -9.863293 0.113032 -7.752760 0.151444 0.275910 10.970202 0.887750 -0.971971 8.037250 0.000000 0.000000 0.000000 11.539655 -2.430998 14.720582 -7.480666 2.415811 -25.747474 2.627217 5.270673 29.866996 15.643977 -6.339077 -26.342879 0.000000 0.000000 0.000000 -10.986099 1.478785 -2.571384 -51.759109 -3.469586 -7.454710 -34.579717 -34.836403 11.988991 0.000000 0.000000 0.000000 13.427441 -12.127010 -5.231155 49.690024 9.751694 -3.756490 23.316056 39.401297 12.192890 0.000000 0.000000 0.000000 
0.075978 0.945248 -0.036392 3.111224 4.528212 0.461752 2.223948 -0.359886 -4.381961 0.259971 -0.363740 7.967686 -2.547596 -0.110458 9.585002 0.000000 0.000000 0.000000 -9.732701 0.214015 -8.848652 -1.253339 0.681518 12.310561 1.394923 -0.062406 7.713960 0.000000 0.000000 0.000000 11.544936 -2.509971 15.864730 -6.718633 2.229498 -25.693264 2.120184 5.539619 29.726312 15.598203 -6.566339 -26.142053 0.000000 0.000000 0.000000 -10.554358 1.054080 -2.069586 -52.061660 -3.901127 -7.307878 -34.085864 -35.869596 12.471348 0.000000 0.000000 0.000000 13.839323 -12.059575 -5.424515 48.587291 10.493444 -3.485061 22.460087 39.977400 11.778304 0.000000 0.000000 0.000000 
0.094795 0.943922 -0.044827 2.886827 1.135787 0.285653 1.069441 -0.358739 -4.159000 0.410345 -0.335235 7.375760 -1.368459 1.641138 9.748674 0.000000 0.000000 0.000000 -10.177878 0.310014 -10.398458 -2.158100 0.965028 12.674077 2.652509 1.756029 8.788083 0.000000 0.000000 0.000000 11.321045 -2.539688 17.124374 -6.596700 2.154544 -26.022442 2.353742 5.488077 29.863359 15.715454 -6.954334 -26.205882 0.000000 0.000000 0.000000 -10.319594 0.793749 -1.598726 -52.659787 -4.751468 -7.030485 -32.592064 -36.652008 12.635745 0.000000 0.000000 0.000000 14.646876 -11.794305 -5.657159 47.842835 11.232884 -3.256724 20.918684 40.731112 11.069906 0.000000 0.000000 0.000000 
0.114380 0.943881 -0.055252 3.028516 -1.787874 0.022831 0.115276 -0.419260 -4.561428 -0.509967 -0.145891 7.387566 -0.440579 3.300284 10.856987 0.000000 0.000000 0.000000 -10.582830 0.403214 -12.342596 -3.403596 1.376680 13.798062 3.543947 2.508982 10.238545 0.000000 0.000000 0.000000 10.535379 -2.533029 18.975326 -5.719536 1.922456 -26.145358 1.811783 5.261805 29.981563 15.658571 -7.062924 -26.892909 0.000000 0.000000 0.000000 -10.910128 0.313879 -1.150822 -52.391470 -6.588702 -6.203561 -31.188109 -37.815918 12.913227 0.000000 0.000000 0.000000 16.493126 -11.607988 -6.101350 46.344094 12.301178 -2.893969 18.703377 41.243374 9.989951 0.000000 0.000000 0.000000 
0.133271 0.944973 -0.066061 3.134006 -4.784016 0.599365 -0.425979 -0.528092 -5.502523 -2.193907 0.202675 6.950663 0.935895 5.437331 11.442145 0.000000 0.000000 0.000000 -11.262080 0.519000 -14.775856 -3.860067 1.534282 13.825234 4.647385 3.127699 12.429739 0.000000 0.000000 0.000000 9.682861 -2.421316 20.258499 -5.263368 1.770078 -26.198591 1.319620 4.262262 29.251203 15.738721 -7.378756 -27.373637 0.000000 0.000000 0.000000 -11.432907 0.351920 -0.803509 -52.388452 -8.386573 -5.345362 -27.972194 -39.122953 12.608991 0.000000 0.000000 0.000000 18.059812 -10.863699 -6.513842 45.170141 12.648277 -2.591953 17.111698 41.621767 8.946853 0.000000 0.000000 0.000000 
0.149597 0.946646 -0.075390 2.906945 -8.885510 0.954937 -0.603252 -0.599170 -6.176333 -3.558446 0.521718 6.607500 2.821393 8.298749 12.516802 0.000000 0.000000 0.000000 -11.718531 0.738357 -17.382351 -3.365358 1.550834 14.411729 5.741609 4.386389 12.989564 0.000000 0.000000 0.000000 8.734041 -2.151189 21.112102 -5.437349 1.741516 -26.570310 0.921503 3.240230 29.437012 15.686725 -8.175304 -26.272184 0.000000 0.000000 0.000000 -12.168146 -0.492827 0.137751 -51.459870 -10.153294 -4.626700 -25.100597 -40.421109 12.466050 0.000000 0.000000 0.000000 20.372828 -8.420735 -6.397641 43.068634 12.098356 -2.520643 15.992862 43.240035 8.201963 0.000000 0.000000 0.000000 
0.162069 0.948370 -0.081886 2.901536 -12.871144 1.467501 -0.677724 -0.594678 -6.097475 -4.980541 0.821712 4.745226 4.578136 10.840223 13.986548 0.000000 0.000000 0.000000 -12.019475 1.013034 -19.574027 -2.369711 1.641512 16.647839 4.390753 2.831799 10.416667 0.000000 0.000000 0.000000 8.094068 -1.897614 21.731374 -5.572743 1.707533 -26.866202 -0.159393 2.582604 29.057712 15.246691 -8.221322 -26.671407 0.000000 0.000000 0.000000 -11.908020 -0.685384 0.701545 -50.472190 -11.636788 -3.927243 -21.193385 -40.712674 11.343964 0.000000 0.000000 0.000000 21.334590 -7.760438 -7.121684 42.823287 11.197254 -2.451890 17.202410 43.861421 8.224386 0.000000 0.000000 0.000000 
0.170213 0.949240 -0.085476 2.407084 -17.344553 1.597866 -0.600783 -0.471403 -4.770239 -5.354239 0.882489 2.068216 6.681427 13.705094 15.242806 0.000000 0.000000 0.000000 -11.724251 1.426750 -21.884119 -0.345481 1.717691 20.410044 1.995571 -2.092573 9.624654 0.000000 0.000000 0.000000 7.705776 -1.640986 22.487815 -5.637739 1.671386 -28.530432 -1.159278 1.792274 30.342507 15.787760 -9.109381 -26.973298 0.000000 0.000000 0.000000 -12.437037 -1.180671 1.564496 -48.938084 -12.976639 -3.569217 -17.517231 -40.236257 10.077750 0.000000 0.000000 0.000000 22.487404 -6.503712 -7.730196 41.805545 10.801393 -2.304447 18.295607 44.187267 8.120298 0.000000 0.000000 0.000000 
